# xmcd CD database file
#
# Track frame offsets:
#	150
#	19586
#	31850
#	56824
#	82950
#	110348
#	124295
#	146723
#	180582
#	197313
#	214808
#	230866
#	252127
#	274930
#	299253
#
# Disc length: 4345 seconds
#
# Revision: 0
# Processed by: cddbd v1.5.2PL0 Copyright (c) Steve Scherf et al.
# Submitted via: CDex 1.70beta2
#
DISCID=d910f70f
DTITLE=go4Hubauer - deep black 2 weiß blau - Mundart from the south
DYEAR=2006
DGENRE=Blues
TTITLE0=War i grad a Koada
TTITLE1=D'Gidar is so laud
TTITLE2=Gegenwart
TTITLE3=Angela, Angela
TTITLE4=Ned mei Tag
TTITLE5=Bruno's Shuffle
TTITLE6=D'Huberin hat gsagt
TTITLE7=De Gräna san des Original
TTITLE8=Groass und gloa
TTITLE9=Angst
TTITLE10=Sörf'n
TTITLE11=Du hast gestern gsagt
TTITLE12=Da Handel midn Deife
TTITLE13=Min Blues werd i ned reich
TTITLE14=Bei eich war's sche
EXTD=YEAR: 2006
EXTT0=
EXTT1=
EXTT2=
EXTT3=
EXTT4=
EXTT5=
EXTT6=
EXTT7=
EXTT8=
EXTT9=
EXTT10=
EXTT11=
EXTT12=
EXTT13=
EXTT14=
PLAYORDER=
